<?xml version="1.0"?>
<!-- Generated by SVGo -->
<svg width="240" height="240"
     xmlns="http://www.w3.org/2000/svg" 
     xmlns:xlink="http://www.w3.org/1999/xlink">
<polygon points="50,40 15,60 50,80" style="fill:rgb(67,191,134)"/>
<polygon points="190,40 225,60 190,80" style="fill:rgb(67,191,134)"/>
<polygon points="15,60 50,80 15,100" style="fill:rgb(93,214,75)"/>
<polygon points="225,60 190,80 225,100" style="fill:rgb(93,214,75)"/>
<polygon points="50,80 15,100 50,120" style="fill:rgb(93,214,75)"/>
<polygon points="190,80 225,100 190,120" style="fill:rgb(93,214,75)"/>
<polygon points="15,100 50,120 15,140" style="fill:rgb(67,191,134)"/>
<polygon points="225,100 190,120 225,140" style="fill:rgb(67,191,134)"/>
<polygon points="50,120 15,140 50,160" style="fill:rgb(226,255,222)"/>
<polygon points="190,120 225,140 190,160" style="fill:rgb(226,255,222)"/>
<polygon points="15,140 50,160 15,180" style="fill:rgb(226,255,222)"/>
<polygon points="225,140 190,160 225,180" style="fill:rgb(226,255,222)"/>
<polygon points="50,160 15,180 50,200" style="fill:rgb(93,214,75)"/>
<polygon points="190,160 225,180 190,200" style="fill:rgb(93,214,75)"/>
<polygon points="15,180 50,200 15,220" style="fill:rgb(255,255,255); fill-opacity:0"/>
<polygon points="225,180 190,200 225,220" style="fill:rgb(255,255,255); fill-opacity:0"/>
<polygon points="50,0 85,20 50,40" style="fill:rgb(255,255,255); fill-opacity:0"/>
<polygon points="190,0 155,20 190,40" style="fill:rgb(255,255,255); fill-opacity:0"/>
<polygon points="85,20 50,40 85,60" style="fill:rgb(67,191,134)"/>
<polygon points="155,20 190,40 155,60" style="fill:rgb(67,191,134)"/>
<polygon points="50,40 85,60 50,80" style="fill:rgb(93,214,75)"/>
<polygon points="190,40 155,60 190,80" style="fill:rgb(93,214,75)"/>
<polygon points="85,60 50,80 85,100" style="fill:rgb(93,214,75)"/>
<polygon points="155,60 190,80 155,100" style="fill:rgb(93,214,75)"/>
<polygon points="50,80 85,100 50,120" style="fill:rgb(67,191,134)"/>
<polygon points="190,80 155,100 190,120" style="fill:rgb(67,191,134)"/>
<polygon points="85,100 50,120 85,140" style="fill:rgb(93,214,75)"/>
<polygon points="155,100 190,120 155,140" style="fill:rgb(93,214,75)"/>
<polygon points="50,120 85,140 50,160" style="fill:rgb(226,255,222)"/>
<polygon points="190,120 155,140 190,160" style="fill:rgb(226,255,222)"/>
<polygon points="85,140 50,160 85,180" style="fill:rgb(226,255,222)"/>
<polygon points="155,140 190,160 155,180" style="fill:rgb(226,255,222)"/>
<polygon points="50,160 85,180 50,200" style="fill:rgb(93,214,75)"/>
<polygon points="190,160 155,180 190,200" style="fill:rgb(93,214,75)"/>
<polygon points="85,180 50,200 85,220" style="fill:rgb(226,255,222)"/>
<polygon points="155,180 190,200 155,220" style="fill:rgb(226,255,222)"/>
<polygon points="120,0 85,20 120,40" style="fill:rgb(67,191,134)"/>
<polygon points="120,0 155,20 120,40" style="fill:rgb(67,191,134)"/>
<polygon points="85,20 120,40 85,60" style="fill:rgb(67,191,134)"/>
<polygon points="155,20 120,40 155,60" style="fill:rgb(67,191,134)"/>
<polygon points="120,40 85,60 120,80" style="fill:rgb(93,214,75)"/>
<polygon points="120,40 155,60 120,80" style="fill:rgb(93,214,75)"/>
<polygon points="85,60 120,80 85,100" style="fill:rgb(93,214,75)"/>
<polygon points="155,60 120,80 155,100" style="fill:rgb(93,214,75)"/>
<polygon points="120,80 85,100 120,120" style="fill:rgb(93,214,75)"/>
<polygon points="120,80 155,100 120,120" style="fill:rgb(93,214,75)"/>
<polygon points="85,100 120,120 85,140" style="fill:rgb(226,255,222)"/>
<polygon points="155,100 120,120 155,140" style="fill:rgb(226,255,222)"/>
<polygon points="120,120 85,140 120,160" style="fill:rgb(226,255,222)"/>
<polygon points="120,120 155,140 120,160" style="fill:rgb(226,255,222)"/>
<polygon points="85,140 120,160 85,180" style="fill:rgb(93,214,75)"/>
<polygon points="155,140 120,160 155,180" style="fill:rgb(93,214,75)"/>
<polygon points="120,160 85,180 120,200" style="fill:rgb(226,255,222)"/>
<polygon points="120,160 155,180 120,200" style="fill:rgb(226,255,222)"/>
<polygon points="85,180 120,200 85,220" style="fill:rgb(226,255,222)"/>
<polygon points="155,180 120,200 155,220" style="fill:rgb(226,255,222)"/>
<polygon points="120,200 85,220 120,240" style="fill:rgb(67,191,134)"/>
<polygon points="120,200 155,220 120,240" style="fill:rgb(67,191,134)"/>
<polygon points="85,220 120,240 85,260" style="fill:rgb(255,255,255); fill-opacity:0"/>
<polygon points="155,220 120,240 155,260" style="fill:rgb(255,255,255); fill-opacity:0"/>
</svg>
